<svg width="17" height="16" viewBox="0 0 17 16" fill="none" xmlns="http://www.w3.org/2000/svg">
<path d="M2.63086 8C2.63086 11.3137 5.31715 14 8.63086 14C11.9446 14 14.6309 11.3137 14.6309 8C14.6309 4.68629 11.9446 2 8.63086 2L8.63086 6.99382e-07C13.0491 3.13124e-07 16.6309 3.58172 16.6309 8C16.6309 12.4183 13.0491 16 8.63086 16C4.21258 16 0.630859 12.4183 0.630859 8C0.630858 3.58172 4.21258 1.08564e-06 8.63086 6.99382e-07L8.63086 2C5.31715 2 2.63086 4.68629 2.63086 8Z" fill="#FBFBFB"/>
<path d="M8.63086 12C6.42172 12 4.63086 10.2091 4.63086 8C4.63086 5.79086 6.42172 4 8.63086 4L8.63086 12Z" fill="#FBFBFB"/>
</svg>
